<?xml version="1.0" standalone="no"?>
<!DOCTYPE svg PUBLIC "-//W3C//DTD SVG 20010904//EN"
 "http://www.w3.org/TR/2001/REC-SVG-20010904/DTD/svg10.dtd">
<svg version="1.0" xmlns="http://www.w3.org/2000/svg"
 width="989.000000pt" height="257.000000pt" viewBox="0 0 989.000000 257.000000"
 preserveAspectRatio="xMidYMid meet">

<g transform="translate(0.000000,257.000000) scale(0.100000,-0.100000)"
fill="#000000" stroke="none">
<path d="M7663 1974 c-65 -32 -95 -111 -68 -179 30 -81 111 -113 187 -76 53
25 81 70 80 127 0 55 -28 101 -74 125 -45 23 -82 24 -125 3z"/>
<path d="M650 1747 c-69 -127 -145 -270 -170 -317 -25 -47 -65 -121 -89 -165
-65 -118 -91 -166 -171 -315 -40 -74 -86 -159 -102 -188 l-30 -53 157 3 158 3
59 108 59 107 258 0 257 0 59 -110 60 -110 153 0 c83 0 152 3 152 6 0 7 -30
63 -419 783 -138 256 -254 468 -258 472 -5 4 -64 -97 -133 -224z m199 -475
c28 -50 51 -97 51 -102 0 -6 -49 -10 -126 -10 l-126 0 48 87 c80 146 78 144
91 130 6 -7 34 -54 62 -105z"/>
<path d="M4650 1803 c0 -125 5 -194 15 -233 19 -70 19 -198 0 -275 -11 -44
-14 -129 -15 -322 l0 -263 149 0 c131 0 150 2 155 17 4 10 6 152 5 316 -1 164
1 300 3 302 3 3 72 -49 154 -115 453 -366 633 -510 638 -510 3 0 6 281 6 625
l0 625 -150 0 -150 0 0 -291 c0 -253 -2 -290 -15 -285 -8 3 -185 133 -392 289
-208 156 -384 286 -390 291 -10 6 -13 -31 -13 -171z"/>
<path d="M7040 1760 l0 -170 -59 0 c-33 0 -62 -3 -64 -8 -10 -16 -58 -205 -54
-216 3 -10 24 -13 124 -15 l52 -1 3 -223 3 -223 33 -66 c53 -108 138 -157 283
-166 l88 -5 26 89 c14 49 30 102 36 118 17 53 14 56 -49 56 -66 0 -120 24
-139 61 -9 16 -13 78 -13 192 l0 167 48 2 c26 0 53 2 61 2 10 1 24 37 43 111
15 61 28 113 28 118 0 4 -40 7 -90 7 l-90 0 0 170 0 170 -135 0 -135 0 0 -170z"/>
<path d="M1716 1614 c-139 -34 -250 -124 -318 -261 -36 -72 -41 -92 -46 -171
-9 -163 44 -296 161 -402 74 -67 211 -120 312 -120 49 0 152 19 188 35 15 6
17 1 17 -46 0 -72 -14 -116 -47 -152 -41 -42 -75 -57 -135 -57 -79 0 -144 45
-168 118 -7 17 -14 32 -16 32 -9 0 -68 -32 -161 -87 -101 -60 -100 -58 -51
-130 41 -61 114 -119 188 -150 60 -25 76 -27 205 -27 121 0 147 3 195 22 126
50 207 127 252 239 22 56 23 71 26 398 4 370 -2 432 -52 540 -82 179 -321 275
-550 219z m241 -265 c56 -29 108 -98 118 -159 23 -138 -87 -270 -225 -270 -91
0 -184 59 -216 137 -21 49 -18 146 6 193 23 45 83 99 131 117 49 18 130 11
186 -18z"/>
<path d="M2644 1614 c-123 -30 -215 -109 -251 -217 -14 -44 -18 -103 -21 -374
l-3 -323 135 0 136 0 0 288 c0 260 2 291 19 329 24 52 49 66 112 61 l50 -3 -3
125 -3 125 -55 2 c-30 1 -82 -5 -116 -13z"/>
<path d="M3241 1614 c-294 -79 -450 -393 -326 -653 122 -254 441 -363 695
-238 l65 32 6 100 c8 143 53 248 162 377 l40 48 -36 72 c-88 176 -262 279
-472 277 -44 0 -104 -7 -134 -15z m237 -250 c49 -20 100 -70 123 -119 22 -47
25 -132 6 -178 -37 -86 -129 -147 -225 -147 -64 0 -106 16 -157 61 -51 45 -75
100 -75 173 0 99 48 170 142 211 44 19 140 19 186 -1z"/>
<path d="M6185 1601 c-97 -28 -156 -61 -221 -125 -186 -186 -189 -456 -8 -647
155 -162 423 -199 574 -79 l40 32 0 -41 0 -41 98 -2 c53 -1 113 -2 132 -2 l35
-1 3 260 c2 273 -3 316 -49 406 -28 56 -120 150 -183 188 -115 69 -288 90
-421 52z m213 -233 c64 -16 146 -96 162 -158 26 -99 -10 -192 -98 -254 -90
-64 -245 -41 -313 46 -76 95 -72 214 10 301 60 65 146 89 239 65z"/>
<path d="M9135 1601 c-120 -35 -203 -92 -269 -184 -25 -36 -53 -84 -61 -107
-75 -212 0 -429 189 -552 154 -100 360 -105 481 -13 25 19 45 32 46 27 1 -4 1
-20 1 -35 1 -16 6 -30 12 -32 6 -2 66 -6 134 -9 l122 -5 0 270 c0 243 -2 275
-20 329 -27 79 -49 114 -116 181 -99 101 -223 150 -375 148 -48 0 -110 -8
-144 -18z m218 -235 c175 -52 226 -267 92 -385 -52 -45 -93 -61 -160 -61 -67
0 -118 20 -164 63 -127 120 -76 330 93 383 54 17 83 17 139 0z"/>
<path d="M7595 1578 c-3 -7 -4 -209 -3 -448 l3 -435 133 -3 132 -3 1 43 c2
147 3 298 1 561 l-2 297 -130 0 c-95 0 -132 -3 -135 -12z"/>
<path d="M7927 1583 c-2 -5 41 -100 97 -213 56 -113 155 -317 221 -453 106
-219 121 -246 133 -230 14 20 452 889 452 898 0 3 -64 4 -142 3 l-142 -3 -85
-198 c-47 -108 -88 -194 -92 -190 -4 5 -40 82 -79 172 -39 90 -78 177 -86 192
l-15 29 -129 0 c-71 0 -131 -3 -133 -7z"/>
</g>
</svg>
