<svg xmlns="http://www.w3.org/2000/svg" width="104" height="70" viewBox="0 0 104 70" fill="none"><g id="logo"><path id="Rectangle 4" d="M23 37L49.5 31.5L66 36L83 31.5L92.5 37L91.5 50L83 60L66 53L52 60L32.5 57.5H12.5L23 37Z" fill="white"></path><g id="LOGO"><g id="Group"><path id="Vector" d="M88.937 29.8386C87.1416 29.1626 85.15 28.7396 82.9883 28.61L84.4537 24.2563H93.1369L95.2196 30.5652H104L93.6874 2.1212H84.8929L81.2962 11.4825L77.9079 20.3053L77.9524 16.4151H70.9188L70.7792 24.8736C70.6375 24.9404 70.4594 25.0092 70.2509 25.0699C69.9068 25.1651 69.4878 25.2319 69.0162 25.2319C68.9636 25.2319 68.911 25.2319 68.8604 25.2278H68.8421C66.6987 25.2258 65.043 24.4243 63.8913 23.1187C62.7376 21.8132 62.0919 19.9774 62.0919 17.8947C62.096 15.6884 62.8894 13.9133 64.205 12.6665C65.5186 11.4217 67.3727 10.7032 69.5344 10.7012C70.2286 10.7012 71.1253 10.8186 71.9916 11.027C72.8599 11.2375 73.6979 11.5452 74.2727 11.8893L74.297 11.9055L74.6593 12.118L74.7686 12.1828L77.0598 6.71783L76.7036 6.49114C76.1328 6.13085 75.4446 5.80498 74.6573 5.53578C74.5378 5.4953 74.4204 5.45684 74.2949 5.41839C72.7951 4.94881 70.9654 4.66949 68.9069 4.66746C64.8932 4.66746 61.596 5.70985 59.1834 7.60032L59.0073 7.73998C56.801 9.53531 55.3943 12.0593 54.8762 15.0529H46.6039L46.6605 11.4015H55.2223V5.36779H39.3881L39.2545 21.3477L35.8784 4.15133L35.4796 2.12525H25.7885L21.3133 20.5361L17.7084 2.1212H8.01727L1.24883 30.5652H7.20764L7.01738 37.4754H22.0764L13.0612 48.2555L5.82319 56.9184L7.72783 63.9541H33.1378V62.3915C33.9576 63.3671 34.8724 64.2658 35.8865 65.0653C39.3699 67.8058 43.9928 69.4352 49.5347 69.4352C53.097 69.4352 56.2748 68.7632 59.0154 67.5447C59.7015 67.2431 60.3613 66.9051 60.9908 66.5368C63.9358 64.8102 66.2514 62.3895 67.8706 59.5254C69.5971 61.3309 71.7548 62.768 74.3051 63.7031L74.6674 63.8306C75.5539 64.1322 76.4769 64.3791 77.4484 64.5552C78.6669 64.7819 79.9502 64.9074 81.3002 64.9216H81.5694C84.2918 64.9236 86.7571 64.4722 88.941 63.6525C91.4063 62.7255 93.5053 61.3248 95.1913 59.574C98.3751 56.2647 100.085 51.7166 100.085 46.7455C100.085 41.7745 98.3751 37.2305 95.1913 33.9252C93.5032 32.1663 91.4063 30.7677 88.941 29.8406L88.937 29.8386ZM88.937 9.38351L88.7447 8.72974L88.937 8.11038L88.9612 8.02942H88.9693V8.00513L89.0078 8.01727L89.0503 8.00513V8.02942H89.0564L89.2669 8.73784L88.9977 9.59604L91.1715 16.9838H86.6984L88.9349 9.79237L88.9957 9.59604L88.9349 9.38553L88.937 9.38351ZM74.0925 11.2193C74.1674 11.2558 74.2362 11.2902 74.301 11.3266C74.384 11.3691 74.4609 11.4136 74.5358 11.4582L74.6654 11.1525L74.7301 10.9926L74.7929 11.0291L74.6654 11.2436L74.5358 11.4602L74.301 11.363L74.0743 11.2659L74.0925 11.2214V11.2193ZM13.0612 29.535H9.41791L12.8062 12.6625L13.0612 13.7636L16.7025 29.535H13.0612ZM76.9465 16.9069L77.4444 16.915H76.9465V16.9069ZM77.4484 16.915V17.415H77.4403L77.4444 17.1842L77.4484 16.915ZM46.5613 20.8761H54.9308C55.1717 22.1958 55.5724 23.4203 56.123 24.5295H46.5067L46.5613 20.8761ZM29.5148 15.7998L30.2475 12.8285L32.905 30.2596L32.7492 29.535H26.1224L29.5127 15.7998H29.5148ZM30.211 41.1652L29.5148 42.0275L29.363 42.2137C28.7476 44.2762 28.4157 46.4743 28.4157 48.7575C28.4157 51.1924 28.778 53.5342 29.4824 55.7202H29.9965L30.1645 56.21H29.6423L29.5148 55.8356C29.5026 55.7971 29.4945 55.7587 29.4824 55.7222H18.4553L29.365 42.2137C29.4176 42.0356 29.4581 41.8534 29.5168 41.6793C29.5998 41.4203 29.6888 41.1693 29.7799 40.9203L30.885 39.5521C30.6401 40.0803 30.4155 40.6147 30.2131 41.1652H30.211ZM35.8824 32.4496C35.1275 33.0427 34.4393 33.7005 33.7916 34.3927L32.9718 30.5652H38.795C37.7506 31.1138 36.7791 31.7453 35.8824 32.4496ZM59.0093 51.5932C58.5478 53.852 57.6471 55.5988 56.4529 56.882C54.6819 58.7826 52.2368 59.6995 49.476 59.7015C46.7435 59.6995 44.3187 58.7826 42.5497 56.882C40.7887 54.9834 39.6573 52.0567 39.6553 47.9519C39.6573 43.8471 40.7887 40.9223 42.5497 39.0197C44.3187 37.1171 46.7435 36.2022 49.476 36.2022C52.2085 36.2022 54.6819 37.1191 56.4529 39.0238C57.6471 40.307 58.5498 42.0538 59.0093 44.3106C59.2319 45.4016 59.3534 46.616 59.3534 47.9539C59.3534 49.2918 59.2319 50.5002 59.0093 51.5952V51.5932ZM66.391 35.763C64.5086 33.3099 62.0292 31.3101 59.0093 29.9722C58.2928 29.6544 57.5398 29.369 56.7606 29.1282V25.6772C57.3819 26.6507 58.1329 27.519 59.0093 28.2578L59.1004 28.3327C61.3774 30.2232 64.452 31.2635 68.1175 31.2635C69.2571 31.2635 70.3946 31.215 71.5159 31.0895C69.4433 32.2897 67.733 33.8908 66.391 35.763ZM88.9329 52.5404C88.5564 53.3075 88.1031 53.9674 87.5808 54.528C86.0405 56.1776 83.9193 56.9751 81.5148 56.9771H81.2921C79.8874 56.9468 78.5819 56.6351 77.4403 56.0279C76.7177 55.6453 76.066 55.1454 75.4891 54.528C75.1916 54.2022 74.9123 53.8459 74.6593 53.4593C74.5318 53.263 74.4144 53.0626 74.297 52.8521C73.4671 51.3017 72.9692 49.2837 72.9692 46.7415C72.9692 44.2033 73.4671 42.1853 74.297 40.6369C74.4144 40.4244 74.5338 40.224 74.6593 40.0338C74.9143 39.6411 75.1916 39.2849 75.4891 38.961C76.066 38.3437 76.7177 37.8458 77.4403 37.4612C78.5799 36.852 79.8874 36.5423 81.2921 36.5139H81.5148C83.9193 36.5139 86.0405 37.3114 87.5808 38.961C88.1031 39.5217 88.5585 40.1795 88.9329 40.9507C89.6737 42.4566 90.1048 44.3713 90.1069 46.7415C90.1048 49.1157 89.6717 51.0345 88.9329 52.5404Z" fill="#EC008C"></path><path id="Vector_2" d="M89.0503 8.50298V8.02935L89.0078 8.01519L88.9694 8.02531V8.50298H89.0503Z" fill="#E02685"></path></g><path id="Vector_3" d="M87.7249 5.88191L87.6864 6.00943V0.49995H92.0847L102.037 27.9441H94.3334L92.2446 21.6372H87.6864V15.3606H90.595L87.8018 5.88191H87.7249ZM87.6864 6.00943L84.7738 15.3626H87.6864V21.6392H82.8449L80.7217 27.9461H73.4452L73.4756 27.8652C71.3402 28.4542 69.1319 28.6465 66.8711 28.6465C59.7282 28.6465 55.0789 24.6044 54.0952 18.257H44.821L44.7502 22.9103H55.0162V27.9461H32.1363L29.1467 8.35531H29.0678L24.2303 27.9461H16.0895L11.5658 8.35531H11.4889L7.5541 27.9461H0.631836L7.16144 0.49995H16.0491L19.9838 20.5664H20.0628L24.9387 0.49995H33.8284L38.4715 24.1429L38.6436 3.74046H53.4799V8.77834H44.9222L44.8554 13.4296H54.0487C54.9453 7.11659 59.8051 3.04419 67.6645 3.04419C70.9293 3.04419 73.597 3.77892 75.194 4.79095L73.2853 9.33698C72 8.56783 69.7837 8.07801 68.2899 8.07801C63.7439 8.07801 60.3475 11.1202 60.3475 15.7714C60.3475 20.1434 63.0537 23.6066 67.5937 23.6066C68.7049 23.643 69.6076 23.3272 70.0245 23.0459L70.1622 14.7918H76.1979L76.125 20.9591L83.9865 0.49995H87.6864V6.00943Z" fill="white"></path><g id="Group_2"><path id="Vector_4" d="M87.7249 5.38194H87.3586L87.2472 5.7321L84.0938 15.8584H91.2609L88.1783 5.38194H87.7249ZM87.6804 14.8606H85.4519L87.6804 7.70555L87.7532 7.47278L89.9271 14.8606H87.6824H87.6804Z" fill="#008975"></path><path id="Vector_5" d="M92.4366 0H83.6421L76.657 18.1821L76.6995 14.2939H69.672L69.5324 22.7504C69.3907 22.8192 69.2146 22.89 69.0021 22.9467C68.658 23.0439 68.2349 23.1086 67.7714 23.1086C67.7188 23.1086 67.6682 23.1086 67.6156 23.1086H67.5953C65.4539 23.1046 63.7982 22.3071 62.6445 21.0016C61.4928 19.6961 60.8492 17.8582 60.8492 15.7755C60.8492 13.5713 61.6466 11.7942 62.9582 10.5474C64.2739 9.30256 66.1299 8.58402 68.2916 8.58199C68.9838 8.58199 69.8805 8.69939 70.7508 8.90989C71.6171 9.12039 72.4551 9.42602 73.032 9.77214L73.5258 10.0677L75.8191 4.60068L75.4608 4.37398C73.7444 3.29111 71.0039 2.55233 67.6642 2.54829C63.6505 2.54829 60.3553 3.58865 57.9386 5.48114C55.6332 7.28457 54.1637 9.8612 53.6334 12.9337H45.3611L45.4157 9.28232H53.9795V3.24456H38.1474L38.0077 19.2265L34.2369 0H24.5457L20.0705 18.4108L16.4596 0H6.76642L0 28.444H7.96466L11.5594 10.5393L15.6925 28.444H24.6226L29.0027 10.7052L31.7088 28.444H55.5158V23.5458C56.1615 24.5558 56.9387 25.4545 57.8536 26.2115C60.1367 28.1 63.2092 29.1403 66.8728 29.1403C69.0122 29.1403 71.1212 28.9582 73.1757 28.442H81.0816L83.2069 22.1351H91.8881L93.9728 28.442H102.753L92.4366 0ZM53.68 18.7549C53.9208 20.0746 54.3236 21.2991 54.8762 22.4103H45.2579L45.3125 18.7549H53.68ZM92.6086 21.1392H82.4863L80.3611 27.4462H74.1634L74.2848 27.1203L73.3416 27.3794C71.267 27.9522 69.1012 28.1445 66.8707 28.1445C63.3914 28.1445 60.5678 27.1648 58.4911 25.4464C56.4124 23.724 55.0624 21.2526 54.5847 18.1801L54.522 17.757H44.3268L44.2438 23.4102H54.5179V27.4462H32.567L29.5775 7.85333H28.6788L23.8413 27.4462H16.4859L11.9642 7.85333H11.0797L7.14491 27.4462H1.26503L7.5558 0.999883H15.6379L19.5726 21.0664H20.4531L25.3311 0.999883H33.4151L37.9773 24.2401L38.9691 24.147L39.1432 4.2404H52.9796V8.27839H44.4321L44.345 13.9275H54.4835L54.5442 13.5004C54.9794 10.4522 56.3517 7.98895 58.5559 6.26243C60.7601 4.53793 63.8205 3.5421 67.6662 3.5421C70.6112 3.5421 73.0401 4.16753 74.5601 5.00549L73.034 8.64272C72.4187 8.34923 71.7102 8.11241 70.9856 7.9343C70.0465 7.7076 69.0911 7.58009 68.2916 7.58009C65.9093 7.58009 63.7921 8.38161 62.2721 9.81869C60.752 11.2558 59.8473 13.3264 59.8493 15.7735C59.8493 18.0606 60.5557 20.1434 61.8916 21.6594C63.2234 23.1754 65.1887 24.1065 67.5792 24.1065C67.6419 24.1105 67.7067 24.1105 67.7714 24.1105C68.3321 24.1105 68.8401 24.0296 69.2692 23.9102C69.6983 23.7907 70.0445 23.6349 70.3035 23.4649L70.5242 23.3191L70.6537 15.2938H75.6956L75.6308 20.953L76.5963 21.1392L84.3282 0.999883H91.7403L101.328 27.4442H94.6914L92.6086 21.1372V21.1392Z" fill="#008975"></path></g><path id="Vector_6" d="M80.2967 55.3498C85.3083 55.3376 89.3524 51.9554 89.3524 44.6223C89.3524 37.2891 85.3083 33.911 80.2967 33.8968V26.9402H80.319C91.6699 26.9402 98.3351 34.9149 98.3351 44.6243C98.3351 54.3337 91.6699 62.3085 80.319 62.3085H80.2967V55.3518V55.3498ZM71.235 44.6223C71.235 51.9676 75.2913 55.3498 80.2684 55.3498H80.2967V62.3065C74.2954 62.2984 69.6097 60.0901 66.517 56.5784C63.3392 62.6809 57.0302 66.8201 48.2883 66.8201H48.258V58.0742C53.982 58.062 58.6009 54.2021 58.6009 45.8307C58.6009 37.4592 53.982 33.6013 48.258 33.5912V26.4524H48.2883C55.9129 26.4524 61.6896 29.6079 65.1528 34.4615C68.1382 29.9277 73.3299 26.9482 80.2967 26.9402V33.8968H80.2684C75.2913 33.8968 71.235 37.281 71.235 44.6223ZM48.2559 26.4503V33.5892H48.2296C42.5481 33.5871 37.915 37.449 37.915 45.8286C37.915 54.2082 42.5481 58.0721 48.2296 58.0721H48.2559V66.8181C40.6273 66.812 34.8628 63.6768 31.3935 58.8474V61.339H22.9047V54.0908H28.912C28.0842 51.7773 27.6571 49.2614 27.6571 46.6322C27.6571 43.3249 28.3352 40.1916 29.6306 37.4268L22.9026 45.7558V27.9036H31.1041L32.2578 33.3038C35.7817 29.116 41.2304 26.4564 48.2539 26.4483L48.2559 26.4503ZM22.9047 27.9056V45.7578L16.1767 54.0908H22.9047V61.339H6.85592L5.11523 54.9126L21.8805 34.8583H6.27502L6.46933 27.9036H22.9067L22.9047 27.9056Z" fill="#008975"></path><g id="Group_3"><path id="Vector_7" d="M80.2958 33.407H80.2675C77.6706 33.403 75.264 34.2956 73.5254 36.1739C71.7867 38.0502 70.7423 40.8677 70.7423 44.6243C70.7423 48.381 71.7867 51.2005 73.5254 53.0808C75.264 54.9511 77.6706 55.8437 80.2675 55.8437H80.2958C82.9028 55.8396 85.3135 54.9491 87.0542 53.0808C88.8009 51.2005 89.8453 48.385 89.8433 44.6243C89.8474 40.8677 88.8009 38.0482 87.0542 36.1739C85.3135 34.3037 82.9028 33.4131 80.2958 33.407ZM86.3356 52.4048C84.7994 54.0483 82.6863 54.8499 80.2958 54.8559H80.2675C77.8872 54.8519 75.7802 54.0544 74.2439 52.4048C72.7137 50.7552 71.726 48.211 71.724 44.6223C71.724 41.0418 72.7117 38.4935 74.2439 36.8398C75.7802 35.1902 77.8872 34.3907 80.2675 34.3867H80.2958C82.6863 34.3948 84.7994 35.1963 86.3356 36.8398C87.8759 38.4935 88.8596 41.0397 88.8596 44.6223C88.8596 48.2049 87.8739 50.7552 86.3356 52.4048Z" fill="white"></path><path id="Vector_8" d="M29.2521 37.1191L22.6152 45.3408L15.1505 54.5847H29.6124L29.3776 53.9269C28.57 51.6721 28.151 49.2108 28.151 46.6362C28.151 43.3937 28.8169 40.3313 30.0799 37.6393L29.2521 37.1191ZM28.2482 53.5969H17.207L22.6152 46.9014L28.1024 40.1086C27.4912 42.1671 27.1694 44.3612 27.1694 46.6362C27.1694 49.0732 27.5458 51.413 28.2482 53.599V53.5969Z" fill="white"></path><path id="Vector_9" d="M48.2575 33.0973H48.2312C45.2802 33.0973 42.5538 34.1093 40.5823 36.2366C38.6129 38.3558 37.4248 41.5518 37.4268 45.8326C37.4228 50.1115 38.6109 53.3115 40.5823 55.4327C42.5538 57.558 45.2802 58.572 48.2312 58.57H48.2575C51.2248 58.564 53.9532 57.5519 55.9267 55.4327C57.9042 53.3115 59.0903 50.1135 59.0903 45.8326C59.0903 41.5518 57.9022 38.3558 55.9267 36.2325C53.9532 34.1154 51.2248 33.1054 48.2575 33.0993V33.0973ZM55.2082 54.7628C53.4391 56.6553 51.0062 57.5742 48.2575 57.5843H48.2312C45.4967 57.5823 43.0699 56.6634 41.3049 54.7628C39.5379 52.8602 38.4085 49.9374 38.4085 45.8326C38.4085 41.7279 39.5359 38.8051 41.3049 36.9045C43.0699 34.9999 45.4967 34.083 48.2312 34.083H48.2575C51.0062 34.0871 53.4391 35.008 55.2082 36.9045C56.9792 38.8051 58.1066 41.7279 58.1086 45.8326C58.1086 49.9374 56.9792 52.8622 55.2082 54.7628Z" fill="white"></path><path id="Vector_10" d="M93.9404 31.8C90.7586 28.4906 86.1094 26.4443 80.3185 26.4483H80.2963C73.4833 26.4483 68.2653 29.2739 65.1361 33.6277C61.5434 28.9541 55.7566 25.9545 48.2879 25.9605H48.2575C41.5255 25.9646 36.1658 28.3793 32.5407 32.2554L31.5044 27.4118H5.98917L5.76855 35.3562H20.8275L4.57436 54.7952L6.47899 61.8329H31.887V60.2723C35.506 64.5775 41.1085 67.31 48.2575 67.316H48.2879C52.7327 67.316 56.5906 66.2575 59.738 64.4095C62.6789 62.687 64.9924 60.2683 66.6137 57.4022C69.7995 60.7318 74.465 62.7943 80.2943 62.7963H80.3165C86.1073 62.8024 90.7546 60.7541 93.9384 57.4468C97.1182 54.1415 98.8306 49.5934 98.8285 44.6223C98.8285 39.6553 97.1182 35.1032 93.9384 31.8H93.9404ZM93.232 56.7667C90.2425 59.8736 85.8827 61.8147 80.3206 61.8187H80.2983C74.4184 61.8086 69.8866 59.657 66.891 56.2526L66.4173 55.7162L66.0874 56.3517C64.537 59.3271 62.2316 61.8147 59.2441 63.5634C56.2546 65.3203 52.5849 66.3324 48.2919 66.3324H48.2616C40.7685 66.3243 35.176 63.2619 31.7979 58.5661L30.9073 57.3233V60.8512H7.23194L5.6552 55.0361L22.6148 34.753L22.9325 34.3745H6.78058L6.94655 28.3995H30.709L31.9963 34.3948L32.6419 33.6236C36.0707 29.5492 41.3575 26.9523 48.2575 26.9442H48.2879C55.7789 26.9483 61.3795 30.0228 64.7515 34.749L65.1665 35.3299L65.5591 34.7348C68.4596 30.3406 73.4712 27.4442 80.2943 27.43H80.3165C85.8786 27.4341 90.2384 29.3751 93.228 32.4821C96.2175 35.591 97.8428 39.882 97.8428 44.6223C97.8428 49.3647 96.2175 53.6597 93.228 56.7646L93.232 56.7667Z" fill="white"></path></g></g></g></svg>